<?xml version="1.0" standalone="no"?>
<!DOCTYPE svg PUBLIC "-//W3C//DTD SVG 20010904//EN"
 "http://www.w3.org/TR/2001/REC-SVG-20010904/DTD/svg10.dtd">
<svg version="1.0" xmlns="http://www.w3.org/2000/svg"
 width="1161.000000pt" height="610.000000pt" viewBox="0 0 1161.000000 610.000000"
 preserveAspectRatio="xMidYMid meet">

<g transform="translate(0.000000,610.000000) scale(0.100000,-0.100000)"
fill="#000000" stroke="none">
<path d="M8788 6060 c-54 -29 -81 -73 -86 -141 -5 -71 17 -121 69 -156 135
-89 311 32 269 186 -29 108 -153 163 -252 111z m161 -26 c49 -29 66 -64 66
-131 0 -59 -2 -65 -36 -99 -77 -77 -195 -59 -245 38 -38 73 4 173 86 207 31
13 94 5 129 -15z"/>
<path d="M8790 5905 c0 -53 4 -95 9 -95 6 0 11 17 13 38 3 32 7 37 30 40 20 2
33 -6 59 -37 43 -55 68 -55 33 -1 -25 38 -26 41 -10 58 19 22 21 63 4 80 -7 7
-39 12 -75 12 l-63 0 0 -95z m120 60 c22 -27 4 -45 -45 -45 -43 0 -45 1 -45
30 0 28 2 30 39 30 22 0 44 -6 51 -15z"/>
<path d="M8585 5574 c-60 -13 -198 -41 -305 -63 -107 -22 -316 -65 -465 -96
-148 -31 -313 -65 -365 -75 -52 -11 -216 -44 -365 -75 -543 -112 -612 -126
-705 -145 -52 -11 -214 -44 -360 -74 -146 -30 -299 -62 -340 -70 l-75 -16
-1540 309 c-847 170 -1542 307 -1544 305 -9 -9 -13 -4064 -4 -4064 5 0 61 13
124 29 63 16 357 91 654 166 297 75 680 172 850 215 171 43 570 144 888 225
l578 146 117 -30 c64 -17 167 -44 227 -59 61 -16 209 -55 330 -86 121 -32 382
-100 580 -152 198 -52 412 -107 475 -124 63 -16 207 -54 320 -84 113 -29 322
-84 465 -121 143 -37 334 -87 424 -111 91 -24 166 -43 167 -41 1 1 6 928 10
2060 7 2016 7 2057 -12 2056 -10 -1 -68 -12 -129 -25z m17 -2011 c-1 -1028 -5
-1873 -7 -1880 -3 -9 -28 -6 -92 12 -87 23 -304 79 -658 170 -99 26 -211 55
-250 65 -38 10 -196 51 -350 91 -384 98 -572 147 -830 214 -323 84 -544 141
-685 177 l-126 31 -219 -56 c-121 -31 -321 -83 -445 -116 -225 -58 -518 -135
-980 -255 -135 -35 -344 -89 -465 -121 -121 -32 -314 -82 -430 -112 -115 -30
-259 -67 -319 -83 -61 -16 -111 -28 -112 -27 -8 8 11 3747 18 3747 5 0 674
-133 1486 -295 l1477 -295 670 135 c1473 297 1770 358 2020 409 143 30 269 54
280 55 20 1 20 -4 17 -1866z"/>
<path d="M2766 4648 c-3 -348 -7 -1125 -9 -1726 l-4 -1094 21 5 c22 4 528 134
651 167 39 10 203 53 365 94 162 42 410 105 550 142 140 36 359 92 485 125
127 32 355 91 508 131 l279 71 61 -15 c34 -9 188 -48 342 -88 560 -144 665
-171 970 -250 171 -43 398 -102 505 -130 107 -27 337 -86 510 -131 173 -44
348 -89 389 -100 40 -11 76 -18 78 -15 3 3 8 780 11 1727 l5 1722 -24 -6 c-13
-3 -233 -47 -489 -97 -256 -50 -609 -120 -785 -155 -1020 -203 -1554 -307
-1580 -307 -23 0 -2715 535 -2811 558 l-22 6 -6 -634z m1499 203 l1350 -269
225 44 c124 24 354 68 513 99 158 30 414 79 570 109 155 30 413 80 572 111
160 31 405 78 545 105 140 27 270 52 289 56 l33 7 -7 -1544 c-4 -849 -9 -1545
-10 -1547 -1 -1 -71 15 -156 37 -85 22 -289 74 -454 116 -165 42 -412 105
-550 140 -272 69 -592 151 -1060 270 -165 42 -343 88 -395 101 -52 14 -106 26
-120 26 -14 0 -146 -32 -295 -72 -148 -39 -304 -81 -345 -92 -69 -18 -342 -90
-520 -138 -41 -11 -151 -40 -245 -65 -93 -25 -204 -54 -245 -65 -41 -11 -151
-40 -245 -65 -93 -25 -201 -53 -240 -64 -38 -10 -131 -35 -205 -55 -74 -19
-191 -51 -260 -69 l-125 -33 -3 450 c-6 840 9 2676 22 2676 7 0 619 -121 1361
-269z"/>
<path d="M7812 4895 c-61 -32 -112 -92 -141 -170 -39 -104 -46 -177 -46 -485
l0 -295 32 -91 c30 -86 109 -269 204 -471 91 -196 93 -207 94 -484 0 -263 -3
-279 -49 -279 -43 0 -46 13 -46 227 l0 203 -131 0 -132 0 6 -252 c5 -261 13
-315 56 -414 24 -53 91 -119 139 -136 20 -7 73 -13 117 -13 69 0 87 4 125 27
64 37 95 73 129 150 54 118 63 208 59 572 -4 296 -6 327 -27 395 -20 69 -96
249 -209 497 -77 169 -93 233 -99 410 -6 169 0 233 25 264 15 19 19 19 37 6
19 -14 20 -24 17 -205 l-3 -191 124 0 c121 0 125 1 131 23 9 35 7 366 -4 439
-19 132 -61 216 -133 265 -37 24 -53 28 -132 31 -81 3 -95 1 -143 -23z"/>
<path d="M3262 4773 c-7 -60 -24 -211 -37 -338 -14 -126 -34 -313 -45 -415
-11 -102 -25 -230 -30 -285 -6 -55 -15 -138 -20 -185 -6 -47 -26 -231 -45
-410 -19 -179 -39 -368 -45 -420 -5 -52 -19 -175 -30 -273 -11 -98 -20 -195
-20 -214 0 -33 2 -35 28 -30 15 3 73 14 129 23 l101 18 6 55 c3 31 13 142 22
246 9 105 21 244 28 310 l11 120 95 12 c52 7 100 11 106 9 6 -2 16 -57 23
-123 7 -65 16 -152 21 -193 5 -41 15 -132 22 -202 6 -71 17 -128 22 -128 18 0
231 62 239 70 4 4 -3 106 -17 226 -14 120 -37 316 -51 434 -13 118 -34 298
-45 400 -11 102 -36 318 -55 480 -19 162 -48 419 -65 570 -17 151 -32 279 -33
284 -3 8 -248 64 -288 65 -12 1 -18 -20 -27 -106z m223 -1107 c25 -208 44
-380 43 -381 -5 -4 -171 -25 -174 -22 -2 2 58 629 77 807 3 25 7 -8 54 -404z"/>
<path d="M3960 3610 l0 -1161 33 6 c17 3 68 12 112 19 l80 12 -2 634 c-1 349
0 626 3 615 2 -11 18 -128 34 -260 33 -258 95 -736 110 -850 5 -38 10 -73 10
-76 0 -4 26 -1 58 6 31 7 101 23 155 35 l97 22 -2 1005 -3 1005 -95 29 c-52
16 -102 29 -110 29 -13 0 -15 -71 -14 -587 l2 -588 -19 135 c-11 74 -47 342
-80 595 -34 253 -63 462 -65 464 -2 3 -291 71 -301 71 -2 0 -3 -522 -3 -1160z"/>
<path d="M6982 4716 c-90 -19 -165 -36 -168 -38 -2 -3 -5 -482 -6 -1066 -3
-937 -1 -1063 12 -1067 8 -2 63 -18 121 -34 59 -17 110 -31 113 -31 3 0 6 233
6 519 0 512 0 519 20 524 34 9 89 -12 108 -41 15 -24 17 -73 22 -531 l5 -505
110 -27 c61 -16 118 -28 128 -28 16 -1 17 32 17 563 0 335 -4 575 -10 590 -5
14 -26 44 -46 66 l-38 41 27 22 c15 12 36 42 47 67 18 42 20 67 20 430 0 239
-4 399 -11 423 -14 50 -64 106 -118 130 -76 34 -174 32 -359 -7z m157 -260
l33 -34 -2 -272 c0 -219 -4 -278 -15 -301 -19 -35 -43 -49 -87 -49 l-33 0 -3
335 c-2 184 0 339 3 345 3 5 21 10 39 10 23 0 41 -9 65 -34z"/>
<path d="M4736 4576 c2 -17 8 -87 14 -156 5 -69 17 -201 25 -295 8 -93 24
-276 35 -405 11 -129 24 -286 30 -347 11 -127 25 -280 40 -458 5 -66 13 -147
16 -181 l5 -61 142 25 c78 13 145 27 149 31 3 3 29 263 58 576 28 314 52 575
54 580 4 13 14 -99 76 -835 22 -262 20 -251 38 -246 10 2 72 8 139 11 l122 7
6 42 c33 236 63 456 110 806 30 228 68 507 84 620 15 113 28 206 27 207 -2 3
-223 -44 -233 -50 -6 -4 -14 -42 -17 -84 -4 -43 -11 -118 -16 -168 -5 -49 -14
-139 -20 -200 -6 -60 -19 -197 -30 -303 -11 -106 -20 -203 -20 -214 0 -12 -2
-19 -5 -17 -2 3 -16 137 -30 299 -54 606 -62 690 -68 697 -8 7 -252 63 -277
63 -13 0 -18 -26 -29 -142 -7 -79 -16 -181 -21 -228 -5 -47 -14 -139 -20 -205
-6 -66 -19 -212 -30 -325 -11 -113 -20 -214 -20 -224 0 -11 -2 -17 -5 -14 -3
2 -14 123 -25 269 -47 604 -71 903 -73 905 -1 1 -54 13 -119 26 l-116 24 4
-30z"/>
<path d="M6295 4574 c-71 -14 -130 -26 -131 -27 -2 -1 -59 -344 -128 -762 -69
-418 -135 -812 -146 -875 -10 -63 -18 -115 -17 -117 6 -5 238 -73 252 -73 8 0
15 6 15 13 0 7 13 105 30 217 16 113 30 211 30 218 0 10 23 11 108 6 59 -4
110 -9 113 -13 4 -3 17 -124 30 -268 l23 -262 51 -11 c71 -14 220 -39 221 -37
1 1 -12 97 -27 212 -16 116 -51 374 -79 575 -27 201 -65 482 -85 625 -20 143
-45 328 -56 410 -26 198 -25 195 -52 194 -12 0 -80 -12 -152 -25z m19 -661 c4
-38 18 -168 32 -291 13 -123 24 -225 24 -228 0 -2 -36 -4 -81 -4 l-81 0 6 28
c3 15 19 135 36 267 37 286 40 306 50 300 4 -3 11 -35 14 -72z"/>
<path d="M4486 1760 c-46 -14 -66 -39 -66 -81 0 -20 3 -45 6 -54 7 -18 63 -48
109 -59 67 -16 91 -49 59 -80 -26 -26 -72 -20 -104 14 -20 21 -37 30 -60 30
-28 0 -31 -3 -25 -22 20 -70 86 -106 168 -94 27 4 59 17 75 31 23 20 27 31 27
75 0 62 -19 82 -101 106 -29 8 -64 24 -76 35 -23 19 -23 19 -4 34 29 22 64 18
92 -10 16 -16 36 -25 56 -25 28 0 30 2 23 28 -16 65 -94 97 -179 72z"/>
<path d="M4740 1730 c0 -27 3 -30 30 -30 27 0 30 3 30 30 0 27 -3 30 -30 30
-27 0 -30 -3 -30 -30z"/>
<path d="M5961 1729 c-13 -17 -35 -36 -48 -42 -16 -7 -23 -19 -23 -39 0 -33 5
-34 47 -9 17 11 34 17 37 14 3 -4 6 -57 6 -120 l0 -113 30 0 30 0 0 170 0 170
-27 -1 c-19 0 -36 -10 -52 -30z"/>
<path d="M6176 1739 c-20 -16 -26 -29 -26 -59 0 -21 6 -43 15 -50 20 -16 19
-27 -5 -57 -43 -56 -7 -145 65 -159 42 -8 100 11 120 39 22 31 19 89 -6 121
-19 24 -19 27 -5 48 24 34 20 85 -9 113 -32 33 -110 35 -149 4z m104 -44 c7
-8 10 -25 6 -40 -11 -41 -76 -29 -76 15 0 36 47 53 70 25z m8 -137 c37 -37
-12 -113 -56 -89 -25 13 -36 55 -22 81 12 23 59 27 78 8z"/>
<path d="M6457 1749 c-15 -9 -47 -59 -47 -74 0 -14 58 -3 73 15 20 24 40 26
57 5 16 -19 9 -45 -15 -59 -44 -25 -46 -52 -4 -61 40 -9 56 -48 34 -81 -19
-30 -60 -32 -77 -4 -17 27 -68 28 -68 1 0 -27 47 -70 86 -77 100 -19 172 89
110 163 -24 28 -24 29 -5 52 27 33 24 68 -10 102 -24 23 -38 29 -73 29 -24 0
-51 -5 -61 -11z"/>
<path d="M6744 1663 c-58 -85 -84 -137 -84 -165 0 -5 32 -8 70 -8 62 0 70 -2
70 -19 0 -37 12 -51 41 -51 26 0 29 3 29 35 0 28 4 35 20 35 15 0 20 7 20 26
0 17 -6 28 -20 31 -18 5 -20 14 -20 109 l0 104 -29 0 c-26 0 -38 -11 -97 -97z
m56 -63 l0 -50 -35 0 -35 0 32 50 c18 27 34 50 36 50 1 0 2 -22 2 -50z"/>
<path d="M4965 1660 c-3 -5 -25 -7 -50 -3 l-45 6 0 -122 0 -122 33 3 32 3 5
85 c6 95 11 110 44 110 38 0 46 -19 46 -112 l0 -88 36 0 36 0 -4 106 c-3 97
-5 107 -27 125 -25 20 -95 26 -106 9z"/>
<path d="M5202 1654 c-32 -22 -52 -67 -52 -114 0 -100 87 -156 175 -115 38 19
64 63 43 76 -22 14 -40 10 -64 -16 -23 -25 -42 -25 -71 -2 -17 12 -17 109 -1
125 18 18 53 15 71 -6 23 -26 77 -18 70 9 -14 53 -119 79 -171 43z"/>
<path d="M5450 1642 c-73 -73 -39 -210 55 -228 44 -8 99 11 119 41 21 32 21
32 -14 37 -21 3 -35 -1 -47 -14 -9 -10 -24 -18 -34 -18 -17 0 -49 35 -49 52 0
5 36 8 80 8 l80 0 0 41 c0 33 -6 47 -34 75 -29 29 -41 34 -81 34 -38 0 -52 -5
-75 -28z m118 -49 c14 -23 14 -23 -37 -23 -55 0 -56 1 -40 31 14 27 57 22 77
-8z"/>
<path d="M4740 1540 l0 -120 30 0 30 0 0 120 0 120 -30 0 -30 0 0 -120z"/>
<path d="M6535 756 c-150 -38 -175 -86 -175 -339 0 -181 8 -222 51 -271 54
-62 88 -69 334 -74 318 -6 413 12 462 87 21 31 23 45 23 172 l0 139 -230 0
-230 0 0 -65 0 -64 123 -3 c115 -3 122 -4 125 -24 2 -11 -6 -32 -17 -45 -19
-24 -21 -24 -195 -24 l-176 0 -27 28 c-26 26 -28 34 -31 125 -7 190 7 202 230
202 81 0 159 -5 173 -10 15 -6 32 -23 38 -40 l11 -30 105 0 104 0 -6 60 c-7
86 -33 130 -93 160 -48 24 -54 25 -299 27 -176 1 -265 -2 -300 -11z"/>
<path d="M8664 756 c-65 -16 -107 -46 -130 -93 -16 -32 -19 -67 -22 -228 -4
-205 2 -245 44 -294 51 -60 86 -66 419 -66 296 0 301 0 348 24 34 17 55 37 75
70 l27 46 0 205 c0 180 -2 210 -19 243 -24 49 -65 77 -135 93 -75 18 -534 18
-607 0z m494 -172 c23 -8 44 -26 51 -40 6 -14 11 -71 11 -128 0 -161 -21 -176
-250 -176 -229 0 -250 15 -250 176 0 57 5 114 11 128 20 44 68 55 236 55 116
1 162 -3 191 -15z"/>
<path d="M376 738 c-24 -40 -356 -647 -356 -652 0 -4 49 -6 109 -6 l110 0 33
55 33 55 211 0 212 0 31 -55 31 -55 110 0 c61 0 110 3 110 7 0 4 -80 156 -177
340 l-178 332 -132 1 c-127 0 -133 -1 -147 -22z m209 -261 l62 -112 -125 -3
c-69 -1 -126 -1 -128 1 -2 2 24 56 59 119 34 64 64 114 66 112 3 -2 32 -55 66
-117z"/>
<path d="M1190 420 l0 -340 100 0 100 0 1 53 c1 28 4 138 8 244 l6 192 200
-244 200 -245 153 0 152 0 0 203 c0 112 3 265 7 340 l6 137 -106 0 -107 0 -2
-251 -3 -251 -203 251 -204 251 -154 0 -154 0 0 -340z"/>
<path d="M2290 755 c0 -3 43 -141 96 -308 53 -166 101 -317 106 -335 l9 -33
121 3 121 3 79 229 c43 126 79 231 81 232 1 2 38 -103 81 -232 l78 -234 118 0
118 0 111 333 c61 182 111 335 111 340 0 4 -45 7 -99 7 l-100 0 -36 -117 c-57
-184 -112 -353 -116 -358 -3 -2 -41 103 -85 233 l-80 237 -96 3 -96 3 -20 -53
c-11 -29 -50 -138 -87 -241 -37 -103 -70 -185 -73 -183 -2 3 -34 110 -71 238
l-67 233 -102 3 c-56 1 -102 0 -102 -3z"/>
<path d="M3936 735 c-9 -13 -16 -26 -16 -29 0 -2 -25 -48 -55 -101 -30 -54
-55 -99 -55 -100 0 -1 -52 -96 -115 -210 -63 -114 -115 -209 -115 -212 0 -2
50 -2 112 -1 l112 3 31 52 30 53 212 0 212 0 33 -55 33 -55 113 0 114 0 -24
43 c-14 23 -96 176 -183 340 l-158 297 -132 0 c-130 0 -133 -1 -149 -25z m211
-257 l61 -113 -64 -3 c-35 -2 -93 -2 -128 0 l-64 3 61 113 c33 61 63 112 67
112 4 0 34 -51 67 -112z"/>
<path d="M4756 699 c-3 -34 -6 -187 -6 -340 l0 -279 105 0 105 0 0 85 0 85
185 0 c224 0 225 -1 225 -105 l0 -65 105 0 105 0 0 83 c0 97 -18 141 -68 168
l-33 17 27 14 c16 7 39 29 52 48 22 32 23 43 20 137 -2 84 -7 106 -24 129 -57
77 -96 84 -484 84 l-307 0 -7 -61z m592 -125 c30 -21 32 -104 2 -134 -19 -19
-33 -20 -205 -20 l-185 0 0 85 0 85 183 0 c149 0 187 -3 205 -16z"/>
<path d="M7460 421 l0 -341 105 0 105 0 0 85 0 85 183 0 c223 0 220 1 225 -99
l4 -71 99 0 99 0 0 96 c0 96 0 96 -34 130 -19 19 -42 34 -52 34 -12 0 -4 9 23
25 58 35 77 88 71 193 -6 101 -26 138 -93 172 -50 25 -50 25 -392 28 l-343 3
0 -340z m600 149 c29 -29 27 -94 -5 -125 -24 -25 -26 -25 -205 -25 l-180 0 0
85 0 85 185 0 c172 0 186 -1 205 -20z"/>
<path d="M9655 536 c-8 -246 -3 -313 27 -367 43 -78 129 -98 414 -99 267 0
334 17 382 99 l27 46 3 273 4 272 -106 0 -105 0 -3 -235 c-4 -303 14 -280
-218 -280 -232 0 -214 -23 -218 280 l-3 235 -98 0 -99 0 -7 -224z"/>
<path d="M10740 421 l0 -341 105 0 105 0 0 85 0 85 228 0 c216 0 230 1 272 23
35 17 51 34 70 72 21 43 24 63 25 155 0 94 -3 111 -26 155 -18 36 -38 57 -70
75 l-44 25 -332 3 -333 3 0 -340z m574 154 c21 -22 29 -52 22 -91 -12 -62 -19
-64 -212 -64 l-174 0 0 85 0 85 174 0 c142 0 177 -3 190 -15z"/>
</g>
</svg>
